<svg width="260px" height="150px" viewBox="0 0 160 164" version="1.1" xmlns="http://www.w3.org/2000/svg"
    xmlns:xlink="http://www.w3.org/1999/xlink">
    <title>Artboard</title>
    <desc>
        Created with Sketch.
    </desc>
    <g id="g8" transform="matrix(1 0 0 -1 0 162)">
        <path
            d="M152.785 1.855a50.143 50.143 0 0 0 -12.365 -1.514 50.845 50.845 0 0 0 -31.71 11.051h-0.01a50.143 50.143 0 0 0 -6.097 5.746 50.143 50.143 0 0 0 -8.284 12.345 13.539 13.539 0 0 0 5.024 17.279 46.131 46.131 0 0 1 17.008 19.205 46.131 46.131 0 0 1 4.493 19.897q0 2.387 -0.241 4.713v0.01a44.126 44.126 0 0 1 -1.374 7.391 45.129 45.129 0 0 1 -5.074 11.814 20.057 20.057 0 0 1 -1.013 1.595 30.086 30.086 0 0 1 -1.063 1.544q-0.552 0.762 -1.123 1.504a40.114 40.114 0 0 1 -2.607 3.049v0.01q-0.461 0.501 -0.943 0.953a40.114 40.114 0 0 1 -3.971 3.6v-0.03a50.143 50.143 0 0 1 -5.395 3.721 45.129 45.129 0 0 1 -13.248 5.265l-0.872 0.181 -0.672 0.13a40.114 40.114 0 0 1 -4.242 0.592h-0.01q-1.133 0.12 -2.266 0.16l-0.752 0.03q-0.632 0.02 -1.284 0.03h-0.07q-0.812 0 -1.615 -0.03l-0.752 -0.04 -0.211 -0.01q-0.672 -0.02 -1.334 -0.09l-0.201 -0.01a50.143 50.143 0 0 1 -2.116 -0.241 40.766 40.766 0 0 1 -4.443 -0.822q-0.682 -0.15 -1.334 -0.341l-1.324 -0.371a46.131 46.131 0 0 1 -11.362 -5.205 45.129 45.129 0 0 1 -6.769 -5.265 10.029 10.029 0 0 1 -1.023 -0.983 10.029 10.029 0 0 1 -0.913 -0.933q-0.06 -0.04 -0.08 -0.09a44.126 44.126 0 0 1 -4.653 -5.746v-0.01a40.114 40.114 0 0 1 -1.334 -2.066l-0.07 -0.12a50.143 50.143 0 0 1 -2.056 -3.801q-0.321 -0.662 -0.612 -1.314a40.114 40.114 0 0 1 -1.083 -2.678 40.114 40.114 0 0 1 -0.933 -2.778 40.114 40.114 0 0 1 -0.832 -3.209 46.131 46.131 0 0 1 -1.113 -10.089 30.086 30.086 0 0 1 0.07 -2.377q0.08 -1.635 0.281 -3.229a40.114 40.114 0 0 1 1.554 -7.511l0.321 -1.033a40.114 40.114 0 0 1 1.073 -2.999 40.114 40.114 0 0 1 1.244 -2.908l0.04 -0.08q0.471 -0.963 0.983 -1.895 0.241 -0.471 0.521 -0.933l0.441 -0.742q0.301 -0.542 0.652 -1.073 0.562 -0.903 1.183 -1.765l0.612 -0.852q0.301 -0.431 0.632 -0.852l0.662 -0.832a40.114 40.114 0 0 1 1.735 -2.016q0.341 -0.401 0.712 -0.772a40.114 40.114 0 0 1 2.417 -2.367q0.321 -0.311 0.632 -0.582a45.129 45.129 0 0 1 5.726 -4.292 20.057 20.057 0 0 1 1.845 -1.103 10.029 10.029 0 0 1 0.832 -0.461q0.542 -0.301 1.113 -0.602 0.933 -0.471 1.885 -0.903a40.114 40.114 0 0 1 3.079 -1.264l1.123 -0.401q0.532 -0.201 1.073 -0.341a30.086 30.086 0 0 1 2.186 -0.622l1.113 -0.281a40.114 40.114 0 0 1 3.39 -0.652q1.655 -0.281 3.34 -0.411a74.211 74.211 0 0 1 27.629 -24.129A74.161 74.161 0 0 0 0.572 87.449c0.822 39.523 33.014 71.764 72.487 72.597a73.61 73.61 0 0 0 34.919 -7.913 74.211 74.211 0 0 0 32.282 -31.771 73.209 73.209 0 0 0 6.679 -18.182 74.211 74.211 0 0 0 1.805 -16.316 74.011 74.011 0 0 0 -20.659 -51.406 6.218 6.218 0 0 1 -0.772 -7.552A74.211 74.211 0 0 1 143.238 8.564a73.209 73.209 0 0 1 9.547 -6.699"
            id="path20" fill="#3C73C5" fill-rule="nonzero" />
    </g>
</svg>